<svg id="Layer_1" data-name="Layer 1" xmlns="http://www.w3.org/2000/svg" viewBox="0 0 87.259 27.876">
  <g>
    <path d="M71.128,38.462a1.892,1.892,0,0,0,1.184-.532q-1.14.088-2.234.178A1.578,1.578,0,0,0,71.128,38.462Z" transform="translate(-41.091 -13.096)" fill="none"/>
    <path d="M61.028,20.075c-.012-.282-.1-.419-.273-.412-.14.007-.357.243-.646.736a22.174,22.174,0,0,0-1.551,3.347,39.571,39.571,0,0,0-1.72,5.275,19.117,19.117,0,0,0,4.011-7.864A4.459,4.459,0,0,0,61.028,20.075Z" transform="translate(-41.091 -13.096)" fill="none"/>
    <path d="M76.014,27.933a1.008,1.008,0,0,1,.739-.57l.046-.228a3.617,3.617,0,0,0,.1-1.021c-.032-.734-.357-1.059-1.006-1.03-.79.034-1.688.836-2.722,2.407-.132.206-.342.581-.63,1.1a7.18,7.18,0,0,0-1.125,3.384c.022.508.257.753.682.734.536-.024,1.248-.535,2.139-1.507a6.936,6.936,0,0,0,1.659-2.785Z" transform="translate(-41.091 -13.096)" fill="none"/>
    <path d="M65.925,25.205c-.48.021-1,.439-1.586,1.228A15.926,15.926,0,0,0,62.5,29.651a6.8,6.8,0,0,0-.729,2.744c.026.593.236.867.659.848a1.839,1.839,0,0,0,1.184-.73q.687-.792,1.446-1.843a3.79,3.79,0,0,0,.745-1.729,1.406,1.406,0,0,1,.227-.631,2.661,2.661,0,0,0,.7-2.066C66.7,25.538,66.435,25.183,65.925,25.205Z" transform="translate(-41.091 -13.096)" fill="none"/>
    <path d="M114.4,31.4a2.886,2.886,0,0,0,2.354-1.77,8.227,8.227,0,0,0,1.133-4.459c-.047-1.072-.408-1.593-1.113-1.563s-1.581.691-2.627,1.98a10.285,10.285,0,0,0-1.357,1.953c-.1.231-.44.927-.955,2.077l-.1.231A3.4,3.4,0,0,0,114.4,31.4Z" transform="translate(-41.091 -13.096)" fill="none"/>
    <path d="M43.742,34.677l-.009-.847a21.61,21.61,0,0,1,1.431-5.459,3.359,3.359,0,0,1,.1-.343l.366-.045q2.193-.264,2.785-.29a12.955,12.955,0,0,1,2.949.21,3.245,3.245,0,0,0,.681.055.916.916,0,0,0,1-1.089c-.042-.987-1.333-1.412-3.844-1.3-1.128.051-2.111.148-2.956.27l-.252.039c.422-1.347.9-2.667,1.466-3.993l1.408-3.367.076-.2.508-.021c.169-.008.508-.022.987-.072.48-.021,1.268-.084,2.4-.132a14.382,14.382,0,0,1,3.686.264l1.285.283a2.268,2.268,0,0,0,.539.061.815.815,0,0,0,.892-.943c-.024-.564-.579-.964-1.606-1.174a22.052,22.052,0,0,0-5.124-.173l-.591.023c-.226.01-.76.062-.987.071-.762.033-1.355.031-1.751.02-.072-.365-.391-.548-.9-.526a1.337,1.337,0,0,0-1.1.669c-.367.016-.733.06-1.156.078-.9.04-1.722.047-2.429.021-.482-.007-.736-.024-.793-.021-.819.036-1.2.391-1.17,1.041.033.761.641,1.1,1.854,1.05l2.363-.246a4.716,4.716,0,0,1,.478-.049l-.126.344c-2.6,7.152-4.28,12.143-4.974,15.028a3.518,3.518,0,0,0-.131.883,1.421,1.421,0,0,0,1.492,1.348h.009C43.381,36.106,43.756,35.638,43.742,34.677Z" transform="translate(-41.091 -13.096)" fill="#636466"/>
    <path d="M108.488,18.4a.982.982,0,0,0,1.017.946h.014q.76-.034,1.225-1.071a2.191,2.191,0,0,0,.162-.827.891.891,0,0,0-.791-.98.911.911,0,0,0-.239.007,1.272,1.272,0,0,0-.992.581,1.868,1.868,0,0,0-.4,1.26Z" transform="translate(-41.091 -13.096)" fill="#636466"/>
    <path d="M53.241,39.653l.078-.012C53.949,39.542,52.538,39.757,53.241,39.653Z" transform="translate(-41.091 -13.096)" fill="#00a8e3"/>
  </g>
  <path d="M128.343,35.962a1.359,1.359,0,0,0-.485-.412,10.452,10.452,0,0,0-2.194-.884c-1.56-.493-3.155-.875-4.752-1.229l-.34-.075c-.422-.052-1.494-.326-1.8.068-.374.487,1.3.728,1.508.782a16.921,16.921,0,0,1,3.292,1.111h-.137q-6.567-.1-13.137-.107-1.082,0-2.16,0c-10.75.02-21.5.257-32.234.814q-1.185.061-2.369.128t-2.364.137l-1.214.076-.005.066-.018.264v.022l0,.02-.014.089a1.335,1.335,0,0,0,.375.8c.028.023.055.045.084.065a1.379,1.379,0,0,0,.738.32q.591-.048,1.195-.094,1.319-.1,2.7-.2c9-.64,19.966-1.15,32.73-1.264q1.077-.009,2.172-.015,6.643-.036,13.913.084a16.037,16.037,0,0,1-3.543,1.239c-.212.051-1.882.294-1.508.781.3.4,1.374.12,1.8.069l.34-.076c1.6-.354,3.193-.735,4.753-1.229a10.39,10.39,0,0,0,2.193-.884,1.359,1.359,0,0,0,.485-.412.086.086,0,0,0,0-.063Zm-57.21,2.054.009,0Z" transform="translate(-41.091 -13.096)" fill="#00a8e3"/>
  <path d="M94.605,33.536a.92.92,0,0,0,.666-.284,1.446,1.446,0,0,0,.313-.523q.573-1.425.84-2.157a24.225,24.225,0,0,1,1.326-2.684,13.777,13.777,0,0,1,2.558-2.935,3.481,3.481,0,0,1,1.538-1.03c.254-.011.374.154.39.52a4.591,4.591,0,0,1-.154,1,26.3,26.3,0,0,1-1.352,3.366,7.466,7.466,0,0,0-.8,3.141c.047,1.1.748,1.607,2.1,1.549a5.036,5.036,0,0,0,2.928-1.008,1.433,1.433,0,0,0,1.423.648,3.672,3.672,0,0,0,2.752-1.73l.263-.356-.851,2.9-.246.767h2.142c.1-.365.19-.71.269-1.03q.4-1.5.515-1.8a4.793,4.793,0,0,0,3.3,1.184,4.988,4.988,0,0,0,3.938-2.4,8.249,8.249,0,0,0,1.5-5.24,5.8,5.8,0,0,0-.777-2.906,2.029,2.029,0,0,0-1.826-1.022,4.806,4.806,0,0,0-2.682,1.36,2.9,2.9,0,0,0,.154-.968c-.025-.593-.348-.861-1-.833a1.556,1.556,0,0,0-1.189.618,14.791,14.791,0,0,0-1.276,3.165l-.6,1.838a1.707,1.707,0,0,0-.965.688c-.509.644-1.152,1.464-1.872,2.456-.107.146-.159.233-.213.292l-.188.234a.66.66,0,0,1-.328.268c-.056,0-.116-.079-.124-.248l-.009-.226.045-.257a21.861,21.861,0,0,1,1.011-3.408,12.161,12.161,0,0,0,.956-3.377c-.022-.508-.287-.751-.824-.727a1.244,1.244,0,0,0-1.014.721,25.283,25.283,0,0,0-1.658,4.142,19.509,19.509,0,0,0-.806,3.061c-.09.052-.185.113-.283.181l-1.1.754-.221.123a1.015,1.015,0,0,1-.612.225.35.35,0,0,1-.383-.313h0a.251.251,0,0,1,0-.067,2.5,2.5,0,0,1,.037-.423c.252-.717.477-1.377.7-1.981l.833-2.3a6.741,6.741,0,0,0,.512-2.538c-.058-1.326-.773-2.2-1.818-2.154-1.213.051-2.559.959-4.009,2.718a42.464,42.464,0,0,1,2.357-5.614l.652-1.243a3.015,3.015,0,0,0,.42-1.376c-.023-.535-.346-.8-.966-.777A1.57,1.57,0,0,0,99.3,16.683c-.372,1.2-1.332,3.846-2.936,7.957-1.146,2.877-1.858,4.717-2.163,5.494a8.448,8.448,0,0,0-.721,2.292C93.513,33.187,93.9,33.566,94.605,33.536Zm17.237-3.914c.515-1.153.852-1.846.955-2.077a10.239,10.239,0,0,1,1.357-1.953q1.569-1.933,2.626-1.98c.706-.031,1.068.491,1.114,1.563a8.244,8.244,0,0,1-1.133,4.459,2.889,2.889,0,0,1-2.354,1.77,3.394,3.394,0,0,1-2.667-1.552Z" transform="translate(-41.091 -13.096)" fill="#636466"/>
  <path d="M109.9,38.355l-.161-.446a1.912,1.912,0,0,1,.04-.953q-1.023.006-2.033.015h-.166l-.224.7a2.58,2.58,0,0,0-.1.824,1.449,1.449,0,0,0,1.464,1.434h0c.022,0,.046,0,.069,0,.819-.036,1.225-.42,1.194-1.126C109.973,38.719,109.939,38.579,109.9,38.355Z" transform="translate(-41.091 -13.096)" fill="#636466"/>
  <path d="M97.359,16.857a3.634,3.634,0,0,0-1.424-2.85,5.791,5.791,0,0,0-3.657-.886,14.043,14.043,0,0,0-7.556,2.391c-2.142,1.449-3.173,3.078-3.1,4.855a4.764,4.764,0,0,0,1.454,2.9,28.331,28.331,0,0,0,4.684,3.7q3.317,2.187,3.344,2.823c.034.761-.474,1.433-1.55,2.046a8.246,8.246,0,0,1-3.772,1.011,7.981,7.981,0,0,1-3.7-.659c-1.069-.518-1.605-1.145-1.638-1.9a2.005,2.005,0,0,1,.243-.915,2.037,2.037,0,0,0,.219-.8.833.833,0,0,0-.728-.926.867.867,0,0,0-.244.007,1.562,1.562,0,0,0-1.209.816c-.031.042-.058.084-.085.126v-.009a.417.417,0,0,0-.27-.355,3.013,3.013,0,0,0,.43-1.8c-.1-2.257-1.078-3.347-2.912-3.265a4.965,4.965,0,0,0-3.183,1.551,12.365,12.365,0,0,0-2.624,4.017,7.517,7.517,0,0,0-.681,3.193c0,.06.009.117.014.175a4.743,4.743,0,0,0-1.133.525,2.2,2.2,0,0,1-.609.281c-.2.008-.318-.154-.331-.466a11.833,11.833,0,0,1,1.281-3.7,1.833,1.833,0,0,0,.169-.658,1.17,1.17,0,0,0-.309-.636,1.609,1.609,0,0,0,.338-1.315A2.857,2.857,0,0,0,68,24.18a2.225,2.225,0,0,0-1.784-.713c-1.467.062-2.919,1.116-4.329,3.155a10.115,10.115,0,0,0-2.2,5.751H59.67a1.435,1.435,0,0,0-.748.371l-.463.361a2.283,2.283,0,0,1-1.133.558c-.592.026-.924-.442-.966-1.428a4.289,4.289,0,0,1,.027-.68,18.093,18.093,0,0,0,4.153-5.24,20.175,20.175,0,0,0,1.7-3.834,9.829,9.829,0,0,0,.591-3.248c-.047-1.072-.643-1.781-1.461-1.745-.762.033-1.584.634-2.551,1.806a19.012,19.012,0,0,0-2.434,4.46,23.031,23.031,0,0,0-1.927,9.016c.077,1.778.972,2.841,2.326,2.781a4.929,4.929,0,0,0,3.128-1.521,1.87,1.87,0,0,0,.129-.141,2.648,2.648,0,0,0,.437.6,2.208,2.208,0,0,0,1.756.714c.93-.04,1.947-.706,3.021-2.025.137,1.209.644,1.809,1.518,1.772a4.3,4.3,0,0,0,2.884-1.313.449.449,0,0,0,.176-.144,2.242,2.242,0,0,0,2.119,1.118c1.044-.045,2.171-.772,3.326-2.179-.361.863-.721,1.642-1.082,2.393l-.4.819q1.044-.059,2.089-.113l.257-.013c.052-.118.1-.237.155-.36.692-1.642,1.153-2.736,1.353-3.338q.357-1,.583-1.692v.028a3.978,3.978,0,0,0,2.179,3.3,9.433,9.433,0,0,0,5.221,1.1,11.452,11.452,0,0,0,5.643-1.517,3.676,3.676,0,0,0,2.091-3.286A3.761,3.761,0,0,0,91.58,27c-.642-.481-1.514-1.036-2.591-1.751a28.587,28.587,0,0,1-4.058-2.961,3.215,3.215,0,0,1-1.055-2.159,2.892,2.892,0,0,1,.79-1.985,7.391,7.391,0,0,1,2.326-1.768,11.881,11.881,0,0,1,4.938-1.487c1.862-.081,3.083.686,3.138,1.957a5.143,5.143,0,0,1-.922,2.838,4.176,4.176,0,0,0-.794,1.9,1.128,1.128,0,0,0,1.089,1.166h.036c.875-.038,1.675-1.119,2.431-3.245A7.123,7.123,0,0,0,97.359,16.857Zm-38.8,6.887A22.267,22.267,0,0,1,60.11,20.4c.29-.493.506-.728.647-.735.17-.007.26.13.273.412a4.558,4.558,0,0,1-.179,1.081,19.124,19.124,0,0,1-4.011,7.866A39.454,39.454,0,0,1,58.56,23.744Zm7.471,4.566a1.4,1.4,0,0,0-.226.631,3.8,3.8,0,0,1-.745,1.728q-.761,1.05-1.446,1.844a1.852,1.852,0,0,1-1.185.73c-.423.018-.632-.258-.658-.848A6.808,6.808,0,0,1,62.5,29.65a16.029,16.029,0,0,1,1.839-3.218c.588-.789,1.107-1.207,1.586-1.227.508-.021.777.333.809,1.038A2.662,2.662,0,0,1,66.031,28.31ZM76.8,27.135l-.046.228a1.009,1.009,0,0,0-.739.567l-.12.486a6.956,6.956,0,0,1-1.66,2.785c-.89.972-1.6,1.483-2.139,1.506-.423.02-.66-.225-.682-.733a7.181,7.181,0,0,1,1.126-3.384c.287-.521.5-.9.629-1.1,1.034-1.571,1.933-2.373,2.723-2.407.648-.029.973.3,1,1.03a3.617,3.617,0,0,1-.1,1.021Z" transform="translate(-41.091 -13.096)" fill="#636466"/>
  <path d="M72.354,38.432l-1.195.094h-.041a1.794,1.794,0,0,1-1.038-.418h0l-.1-.079-.029-.024-.026-.029-.052-.06c-.016-.021-.031-.037-.046-.056s-.044-.058-.065-.087l-.034-.047c-.026-.038-.049-.076-.071-.114l-.015-.023a1.79,1.79,0,0,1-.131-.289c-.005-.013-.008-.026-.012-.039-.012-.037-.023-.073-.032-.11l-.012-.055c-.007-.032-.013-.064-.018-.1s-.006-.042-.008-.063-.006-.04-.008-.059l0-.059v0h0l.018-.113,0-.029h0l.013-.2.005-.069,0-.043v-.022l.026-.395c-.081-.669-.333-.987-.885-.963-.647.028-1.1.666-1.136,1.555,0,.082,0,.165,0,.247a3.5,3.5,0,0,0,1.155,2.493,3.389,3.389,0,0,0,2.528.936,4.13,4.13,0,0,0,2.86-1.17,5.571,5.571,0,0,0,.655-.783C73.887,38.316,73.111,38.374,72.354,38.432Z" transform="translate(-41.091 -13.096)" fill="#636466"/>
  <path d="M66.962,36.806c0-.073,0-.15,0-.233-6.874.478-13.75,1.123-20.557,2.163-1.046.161-2.1.321-3.134.54-.438.093-2.551.63-1.192,1.227a8.29,8.29,0,0,0,4.6.272c.886-.188,1.785-.328,2.678-.469,1.149-.181,2.3-.344,3.456-.5q.525-.07,1.05-.136l.52-.065H54.4q1.344-.162,2.689-.307,3.969-.429,7.948-.746l2.288-.21A4.115,4.115,0,0,1,66.962,36.806ZM53.319,39.641l-.078.013c-.7.1.708-.112.078-.013Z" transform="translate(-41.091 -13.096)" fill="#00a8e3"/>
  <g>
    <path d="M121,22.772h1.368v.151h-.595v1.729h-.179V22.923H121Z" transform="translate(-41.091 -13.096)" fill="#636466"/>
    <path d="M122.614,24.651V22.772h.271l.618,1.659h.006l.605-1.659h.27v1.88h-.178V22.975H124.2l-.618,1.677h-.168l-.618-1.677h0v1.677Z" transform="translate(-41.091 -13.096)" fill="#636466"/>
  </g>
</svg>
